<svg xmlns="http://www.w3.org/2000/svg" fill="none" viewBox="0 0 24 24" id="Supertokens--Streamline-Svg-Logos" height="24" width="24"><desc>Supertokens Streamline Icon: https://streamlinehq.com</desc><path fill="#FF9933" d="M1.4531825 12.9148c-0.1539 0.12545 -0.349665 0.187825 -0.547775 0.174575H0.32191v-0.312h0.624225c0.0908825 0.003875 0.17956 -0.02865 0.2463775 -0.090375 0.061015 -0.055775 0.095365 -0.134925 0.0944325 -0.217575v-0.42715c0.0033125 -0.071875 -0.0192475 -0.14255 -0.06359 -0.199225 -0.04857 -0.0531 -0.1187475 -0.081075 -0.19053 -0.07595h-0.123725c-0.1779625 0.009375 -0.3518775 -0.055275 -0.4804925 -0.178625 -0.12624 -0.14245 -0.189881 -0.3297 -0.1765975 -0.51955v-0.156c-0.01499325 -0.19395 0.054455 -0.38495 0.19053 -0.523975 0.1539275 -0.1254 0.3496725 -0.187775 0.5477725 -0.174575h0.58719v0.312H0.94923c-0.0908825 -0.00385 -0.1795525 0.028675 -0.24638 0.090375 -0.0609875 0.0558 -0.0953325 0.134925 -0.09443 0.217575v0.3121c-0.00246 0.07875 0.0272 0.155075 0.082165 0.2115 0.0511125 0.0516 0.11978 0.081525 0.191815 0.0842l0.1449475 0c0.16814 -0.01005 0.332765 0.051 0.4537 0.16825 0.118395 0.1421 0.176595 0.3248 0.16219 0.5092v0.271025c0.0152025 0.19395 -0.0540775 0.38505 -0.190055 0.5242Zm1.8159175 0.1746 -0.1714 -0.000025c-0.17895 0.01435 -0.35645 -0.0416 -0.494775 -0.156 -0.1201975 -0.13785 -0.178795 -0.31885 -0.1622 -0.500975v-1.396225h0.349025v1.478275c-0.005725 0.072375 0.020525 0.143625 0.071875 0.194975 0.05135 0.05135 0.1226 0.077625 0.195 0.071875h0.221725c0.071225 0.0058 0.1417 -0.017925 0.194925 -0.0656 0.0402 -0.039575 0.065425 -0.091825 0.07145 -0.1479v-1.531625h0.349025v2.0532h-0.328175v-0.09445c-0.0881 0.058975 -0.190925 0.091625 -0.296475 0.094475Zm1.692925 -2.053225v0.0986c0.09525 -0.069 0.21105 -0.10375 0.32855 -0.0986h0.147775c0.18955 -0.016 0.378275 0.03885 0.529675 0.153975 0.1247 0.136375 0.185875 0.31915 0.1684 0.5031v0.73915c0.016775 0.1836 -0.04515 0.3657 -0.170425 0.500975 -0.1503 0.115875 -0.338475 0.171525 -0.52765 0.156h-0.455825v0.69805h-0.3494V11.03665l0.3289 -0.000475Zm0.086225 0.37985c-0.040925 0.041 -0.064475 0.0962 -0.065725 0.1541v1.2113h0.496925c0.082625 0.005975 0.16455 -0.018875 0.22995 -0.069775 0.05385 -0.050975 0.0824 -0.123175 0.077975 -0.1972v-0.90335c0.004375 -0.074 -0.024175 -0.146125 -0.077975 -0.1971 -0.065375 -0.050925 -0.1473 -0.075825 -0.22995 -0.0699h-0.230075c-0.07425 -0.005925 -0.147475 0.020375 -0.201 0.072175l-0.000125 -0.00025Zm1.999725 1.519375c-0.12475 -0.1363 -0.185925 -0.319075 -0.168375 -0.503V11.69325c0 -0.235375 0.05065 -0.403725 0.15195 -0.505025 0.1013 -0.1013 0.26965 -0.15195 0.505025 -0.15195h0.193025c0.1636 -0.011675 0.324325 0.047375 0.44145 0.1622 0.108475 0.133275 0.1621 0.302875 0.1499 0.4743v0.53385H7.22875v0.307925c-0.004425 0.07405 0.024125 0.146225 0.078 0.1972 0.065375 0.050925 0.1473 0.075775 0.22995 0.0698h0.653025v0.307925H7.57825c-0.1779 0.01525 -0.35515 -0.032075 -0.501425 -0.13315l-0.02885 -0.020925Zm0.93205 -1.3448c0.002125 -0.06595 -0.023175 -0.12985 -0.069825 -0.176525 -0.046675 -0.046675 -0.110575 -0.07195 -0.17655 -0.06985h-0.23815c-0.07565 -0.008175 -0.151175 0.01655 -0.207325 0.067875 -0.043525 0.056875 -0.0647 0.1277 -0.05955 0.1991v0.287475h0.7514v-0.308075Zm1.441375 1.190825v-1.4372h-0.29985v-0.30795h0.62815v0.110875c0.085125 -0.0686 0.190075 -0.10735 0.2988 -0.1108l0.452725 -0.000075v0.32855h-0.464425c-0.075425 -0.0053 -0.148775 0.026025 -0.197075 0.0842 -0.040525 0.0481 -0.064925 0.1077 -0.069775 0.1704v1.162125h0.447625v0.307925h-1.096375v-0.307925l0.3002 -0.000125Z" stroke-width="0.25"></path><path fill="#FF9933" d="m13.82345 13.379725 -0.017975 0c-0.077825 -0.006375 -0.152475 -0.033625 -0.21615 -0.078825 -0.0181 -0.0119 -0.035725 -0.02525 -0.0537 -0.037975l-0.00155 -0.001075c-0.036725 -0.027975 -0.0754 -0.0533 -0.11575 -0.07575 -0.061725 -0.032525 -0.1304 -0.049625 -0.200175 -0.049875h-0.00965c-0.026475 -0.000375 -0.05295 0.0023 -0.078825 0.007975 -0.0345 0.021975 -0.0548 0.060575 -0.05335 0.10145 0.001325 0.024075 0.007225 0.047675 0.0174 0.06955 0.007075 0.0132 0.012475 0.02725 0.016075 0.0418 -0.002025 0 -0.007275 -0.006325 -0.017025 -0.018475 -0.0689 -0.097475 -0.168275 -0.16925 -0.282475 -0.203975 -0.0342 -0.006675 -0.062725 -0.0301 -0.075975 -0.062325 -0.013225 -0.032225 -0.009375 -0.06895 0.01025 -0.097725 0.347225 -0.51015 0.390575 -0.692575 0.551925 -1.37075l0.01395 -0.058575c0.010225 -0.0432 0.021025 -0.088375 0.032375 -0.135525 0.0079 -0.03215 0.03055 -0.05865 0.0611 -0.07145l0.19565 -0.08205c0.0126 -0.0052 0.026125 -0.007875 0.039775 -0.00785 0.0055 0.00005 0.011 0.000525 0.016425 0.001425 0.09855 -0.034775 0.202675 -0.050925 0.307125 -0.047625h0.135375c0.10465 -0.003375 0.209 0.012775 0.307725 0.047625 -0.022825 0.003675 -0.04375 0.0148 -0.05955 0.031675l-0.588975 0.04465 -0.04215 -0.044875c-0.015825 -0.016775 -0.036775 -0.027825 -0.05955 -0.03145 -0.03935 0.014875 -0.07565 0.0368 -0.107175 0.064675 -0.08885 0.10445 -0.13085 0.240875 -0.1161 0.37725v0.736975c-0.014825 0.13655 0.027175 0.2732 0.1161 0.37785 0.120025 0.086075 0.267125 0.12585 0.414175 0.11195h0.1354c0.147025 0.0139 0.294125 -0.025875 0.41415 -0.11195 0.089025 -0.104625 0.1311 -0.24125 0.11635 -0.37785v-0.737225c0.014625 -0.1363 -0.02735 -0.27265 -0.1161 -0.377125 -0.03135 -0.02775 -0.067475 -0.049625 -0.106575 -0.06455 0.005325 -0.0008 0.010675 -0.0012 0.016075 -0.0012 0.01365 0 0.027175 0.002725 0.039775 0.008l0.19565 0.08145c0.030475 0.0128 0.0531 0.039325 0.06095 0.07145 0.035725 0.1505 0.0667 0.284825 0.088975 0.382825 0.12395 0.5441 0.170275 0.7476 0.4831 1.20785 0.019625 0.028775 0.0235 0.065475 0.010275 0.0977 -0.0132 0.0322 -0.041725 0.05565 -0.075875 0.06235 -0.107875 0.029375 -0.20195 0.095825 -0.265675 0.187675 -0.006325 0.008225 -0.009175 0.0119 -0.0099 0.0119 0.002825 -0.01005 0.006825 -0.019725 0.011925 -0.0288l0.007025 -0.0161c0.0101 -0.021875 0.01595 -0.045475 0.01725 -0.069525 0.001525 -0.034275 -0.012725 -0.067375 -0.0387 -0.0898 -0.042925 -0.0103 -0.08685 -0.0158 -0.130975 -0.016425h-0.013925c-0.06435 -0.00485 -0.127275 0.02065 -0.17005 0.06895 -0.006375 0.0086 -0.01225 0.01755 -0.017625 0.0268l-0.000725 0.0013c-0.006375 0.0112 -0.013575 0.0219 -0.02155 0.032025 -0.015025 0.020075 -0.038775 0.031725 -0.063825 0.031325 -0.03835 -0.0042 -0.0753 -0.01675 -0.10825 -0.0368 -0.0143 -0.00715 -0.02595 -0.0131 -0.03715 -0.01785 -0.0414 -0.018975 -0.0862 -0.029425 -0.1317 -0.030725 -0.0127 -0.00005 -0.025375 0.001025 -0.037875 0.0032 -0.059125 0.014975 -0.114625 0.04175 -0.16315 0.078725 -0.0119 0.0075 -0.022725 0.014875 -0.03405 0.022025 -0.056825 0.03885 -0.123725 0.0603 -0.19255 0.061675Z" stroke-width="0.25"></path><path fill="#db902e" d="m14.1283 13.24505 0.009525 -0.16065 0.144925 -0.041925 0.059525 0.187325c-0.0705 -0.023625 -0.147525 -0.018125 -0.213975 0.01525Z" stroke-width="0.25"></path><path fill="#db902e" d="m13.2839 13.076425 0 0.06455c-0.1161 -0.0206 -0.2109 0.0175 -0.207925 0.1042h-0.00095v-0.024775c-0.00475 -0.16755 0.077875 -0.30795 0.124325 -0.463 0.0381 -0.128125 0.0555 -0.517875 0.086325 -0.38915 0.0209 0.109275 0.020175 0.221575 -0.002125 0.330575 -0.00435 0.062725 -0.00435 0.12565 0 0.188375l0.00035 0.189225Z" stroke-width="0.25"></path><path fill="#db902e" d="m14.777525 13.076425 0 0.06455c0.101575 0.00535 0.210875 0.0175 0.2079 0.1042h0.00095v-0.024775c0.004775 -0.16755 -0.077875 -0.30795 -0.124325 -0.463 -0.0381 -0.128125 -0.055475 -0.517875 -0.086325 -0.38915 -0.020875 0.109275 -0.0201 0.2216 0.002275 0.330575 0.0043 0.062725 0.0043 0.12565 0 0.188375l-0.000475 0.189225Z" stroke-width="0.25"></path><path fill="#292e37" d="M11.856425 13.089475V10.527075H11.2035v-0.311975h1.663075v0.311975h-0.652925v2.5624h-0.357225Zm4.25 -0.8787v0.8787h-0.34915V10.2151h0.349025v1.5521l0.6446 -0.730925h0.4394l-0.714475 0.808925 0.772 1.24415h-0.4312l-0.603625 -1.00195 -0.106575 0.123375Zm2.028325 0.724725c-0.124775 -0.1363 -0.18595 -0.31905 -0.1684 -0.503v-0.739125c0 -0.2354 0.05065 -0.403725 0.15195 -0.505025 0.1013 -0.1013 0.26965 -0.15195 0.505025 -0.15195h0.193025c0.163575 -0.01175 0.3243 0.047325 0.441325 0.162175 0.108575 0.133225 0.16225 0.302875 0.15005 0.4743v0.53385h-1.092325v0.30795c-0.004425 0.074025 0.024125 0.146225 0.077975 0.1972 0.065425 0.0509 0.1474 0.075775 0.230075 0.069775h0.652925v0.30795h-0.61185c-0.189575 0.0161 -0.3784 -0.038825 -0.529775 -0.1541Zm0.93205 -1.344775c0.0021 -0.065975 -0.023175 -0.129875 -0.06985 -0.17655 -0.046675 -0.046675 -0.110575 -0.07195 -0.17655 -0.06985h-0.23815c-0.07565 -0.008125 -0.151125 0.0166 -0.207325 0.0679 -0.04345 0.056875 -0.064625 0.127675 -0.059525 0.1991v0.28745h0.7515l-0.0001 -0.30805Zm1.4167 -0.55445v0.0986c0.09525 -0.069 0.21105 -0.103725 0.32855 -0.0986h0.18875c0.178975 -0.014275 0.3565 0.041725 0.4949 0.156125 0.120075 0.137875 0.178625 0.31885 0.162075 0.500975v1.3961h-0.34905v-1.478275c0.005875 -0.072425 -0.02035 -0.143775 -0.071725 -0.19515 -0.051375 -0.0514 -0.1227 -0.07765 -0.195125 -0.071825h-0.2709c-0.0742 -0.00615 -0.14745 0.019875 -0.20115 0.07145 -0.040925 0.040975 -0.064475 0.096175 -0.065725 0.154075v1.519725h-0.348775v-2.0532h0.328175Zm3.106475 1.9259c-0.133625 0.09335 -0.295125 0.13825 -0.45775 0.1273h-0.611825v-0.30795h0.6529c0.05995 0.004075 0.119475 -0.01275 0.1684 -0.047625 0.039575 -0.03435 0.060825 -0.08525 0.0574 -0.13755v-0.217675c0 -0.1232 -0.058875 -0.1848 -0.1766 -0.1848h-0.15195c-0.153375 0.011725 -0.305775 -0.0328 -0.4287 -0.125275 -0.10285 -0.105075 -0.154575 -0.249875 -0.1416 -0.396325v-0.119075c-0.014175 -0.149425 0.043775 -0.29665 0.156 -0.3963 0.1358 -0.0899 0.29745 -0.1325 0.4599 -0.121225h0.550275v0.30795h-0.59135c-0.058525 -0.0029 -0.116325 0.013875 -0.164225 0.047625 -0.041775 0.032975 -0.064775 0.0843 -0.06155 0.137425v0.1479c-0.004325 0.0526 0.016175 0.104225 0.055375 0.13955 0.040425 0.031375 0.090675 0.0474 0.141825 0.045275h0.139425c0.151575 -0.010675 0.301475 0.037075 0.41895 0.133475 0.102225 0.10555 0.154525 0.24975 0.143725 0.3963v0.184825c0.010925 0.146525 -0.047875 0.289625 -0.158625 0.386175ZM14.098125 11.3685c0.105575 -0.0135 0.212525 0.0107 0.301975 0.068375 0.050475 0.0748 0.072525 0.165175 0.062175 0.254825v0.737575c0.01035 0.089675 -0.01175 0.180075 -0.062275 0.25485 -0.089425 0.05765 -0.19635 0.081875 -0.301875 0.06835h-0.135275c-0.1056 0.013525 -0.212575 -0.010725 -0.302 -0.068475 -0.05045 -0.074775 -0.0725 -0.1651 -0.06215 -0.254725v-0.737575c-0.01035 -0.08965 0.011675 -0.180025 0.06215 -0.254825 0.089475 -0.057675 0.196425 -0.081875 0.302 -0.068375h0.135275Zm0 -0.33235h-0.135275c-0.18875 -0.0155 -0.376475 0.04 -0.526475 0.15565 -0.125075 0.135025 -0.186875 0.31685 -0.17005 0.500125v0.7376c-0.016825 0.1833 0.044975 0.3651 0.17005 0.50015 0.149975 0.11565 0.337725 0.17115 0.526475 0.155625h0.135275c0.18875 0.015525 0.3765 -0.039975 0.52645 -0.155625 0.125075 -0.13505 0.1869 -0.31685 0.17005 -0.50015v-0.7376c0.016825 -0.183275 -0.044975 -0.3651 -0.17005 -0.500125 -0.149975 -0.11565 -0.3377 -0.17115 -0.52645 -0.15565Z" stroke-width="0.25"></path><path fill="#292e37" d="M14.0307 11.939325c0.0795 0 0.14395 0.064475 0.14395 0.143975 0 0.0515 -0.027025 0.0967 -0.0677 0.122125l0.02115 0.218925c0.000825 0.008525 -0.00195 0.016975 -0.0077 0.023325 -0.005725 0.00635 -0.013875 0.01 -0.022425 0.010025h-0.134575c-0.008575 0 -0.01675 -0.003625 -0.0225 -0.009975 -0.005775 -0.00635 -0.008575 -0.01485 -0.00775 -0.023375l0.02115 -0.219c-0.0406 -0.02545 -0.067575 -0.0706 -0.067575 -0.12205 0 -0.0795 0.06445 -0.143975 0.143975 -0.143975Z" stroke-width="0.25"></path></svg>